# xmcd
#
# Track frame offsets: 
#        150
#        18009
#        34612
#        47461
#        65195
#        82359
#        103025
#        113296
#        128968
#        147124
#        161310
#        178251
#        196071
#        216923
#
# Disc length: 3055 seconds
#
# Revision: 0
# Processed by: cddbd v1.5.2PL0 Copyright (c) Steve Scherf et al.
# Submitted via: ExactAudioCopyFreeDBPlugin 1.0
#
DISCID=bb0bed0e
DTITLE=Eric de Vries - Close to Home
DYEAR=2014
DGENRE=Folk
TTITLE0=Anything but what i am
TTITLE1=Close to Home
TTITLE2=Different Stations
TTITLE3=In this Country
TTITLE4=Memories of you
TTITLE5=November in the rain
TTITLE6=Easy to Love
TTITLE7=Nothing Rhymed
TTITLE8=One more try
TTITLE9=Moment to cherisch
TTITLE10=She never said as much
TTITLE11=Songwriter blues
TTITLE12=Time weighs heavy
TTITLE13=Apology blues
EXTD=
EXTT0=
EXTT1=
EXTT2=
EXTT3=
EXTT4=
EXTT5=
EXTT6=
EXTT7=
EXTT8=
EXTT9=
EXTT10=
EXTT11=
EXTT12=
EXTT13=
PLAYORDER=
